<svg width="383" height="492" viewBox="0 0 383 492" fill="none" xmlns="http://www.w3.org/2000/svg">
<g clip-path="url(#clip0_2003_309)">
<rect x="0.327759" y="0.111084" width="382" height="491" rx="21" fill="#226E65"/>
<rect opacity="0.2" width="107.867" height="107.869" transform="matrix(4.37114e-08 1 1 -4.37114e-08 274.328 383.111)" fill="white" fill-opacity="0.3"/>
<path opacity="0.2" d="M274.831 383.111L332.028 438.743L382.194 490.474L382.194 383.111L274.831 383.111Z" fill="white" fill-opacity="0.3"/>
<rect opacity="0.2" width="107.867" height="107.869" transform="matrix(4.37114e-08 1 1 -4.37114e-08 320.328 -50.8889)" fill="white" fill-opacity="0.3"/>
<path opacity="0.2" d="M320.831 -50.8889L378.028 4.74287L428.194 56.4741L428.194 -50.8889L320.831 -50.8889Z" fill="white" fill-opacity="0.3"/>
<g opacity="0.4">
<path opacity="0.14" d="M0.327698 56.8514C0.327698 64.3349 1.80169 71.7451 4.6655 78.659C7.52932 85.5729 11.7269 91.855 17.0185 97.1466C22.3102 102.438 28.5923 106.636 35.5061 109.5C42.42 112.363 49.8302 113.837 57.3138 113.837C64.7973 113.837 72.2075 112.363 79.1214 109.5C86.0352 106.636 92.3173 102.438 97.609 97.1466C102.901 91.8549 107.098 85.5729 109.962 78.659C112.826 71.7451 114.3 64.3349 114.3 56.8514L57.3137 56.8514L0.327698 56.8514Z" fill="white"/>
<path opacity="0.14" d="M94.9301 503.061C95.1333 495.58 93.8612 488.133 91.1862 481.143C88.5112 474.154 84.4859 467.761 79.3399 462.327C74.194 456.894 68.0282 452.527 61.1947 449.476C54.3612 446.426 46.9937 444.751 39.5129 444.548C32.0322 444.345 24.5846 445.617 17.5955 448.292C10.6064 450.967 4.21264 454.992 -1.22079 460.138C-6.65422 465.284 -11.0209 471.45 -14.0714 478.283C-17.122 485.117 -18.7967 492.484 -19 499.965L37.965 501.513L94.9301 503.061Z" fill="white"/>
<path opacity="0.28" d="M114.301 0.110966C114.301 7.59448 112.827 15.0047 109.963 21.9186C107.099 28.8325 102.901 35.1146 97.6097 40.4062C92.3181 45.6978 86.036 49.8954 79.1221 52.7592C72.2082 55.623 64.798 57.097 57.3145 57.097C49.831 57.097 42.4207 55.623 35.5069 52.7592C28.593 49.8954 22.3109 45.6978 17.0193 40.4062C11.7276 35.1145 7.53005 28.8324 4.66624 21.9186C1.80242 15.0047 0.32844 7.59446 0.32844 0.110945L57.3145 0.110963L114.301 0.110966Z" fill="white"/>
</g>
</g>
<defs>
<clipPath id="clip0_2003_309">
<rect x="0.327759" y="0.111084" width="382" height="491" rx="21" fill="white"/>
</clipPath>
</defs>
</svg>
