<svg width="360" height="112" viewBox="0 0 360 112" fill="none" xmlns="http://www.w3.org/2000/svg">
<g clip-path="url(#clip0_2003_757)">
<rect width="360" height="112" rx="21" fill="#226E65"/>
<rect opacity="0.2" width="50.868" height="47.939" transform="matrix(4.1194e-08 1 1 -4.63826e-08 311.937 68)" fill="white" fill-opacity="0.3"/>
<path opacity="0.2" d="M312.161 68L337.58 94.2348L359.875 118.63L359.875 68L312.161 68Z" fill="white" fill-opacity="0.3"/>
<path opacity="0.14" d="M0 5.72205e-06C-3.68952e-08 3.28305 0.609403 6.53395 1.79341 9.56709C2.97743 12.6002 4.71286 15.3562 6.90063 17.6777C9.0884 19.9991 11.6857 21.8406 14.5441 23.097C17.4026 24.3534 20.4662 25 23.5602 25C26.6542 25 29.7179 24.3534 32.5763 23.097C35.4348 21.8406 38.032 19.9991 40.2198 17.6777C42.4076 15.3562 44.143 12.6002 45.327 9.56708C46.511 6.53394 47.1204 3.28304 47.1204 0L23.5602 5.72205e-06L0 5.72205e-06Z" fill="white"/>
</g>
<defs>
<clipPath id="clip0_2003_757">
<rect width="360" height="112" rx="21" fill="white"/>
</clipPath>
</defs>
</svg>
