<svg width="120" height="34" viewBox="0 0 120 34" fill="none" xmlns="http://www.w3.org/2000/svg">
<path d="M115.435 34H4.43982C1.99903 34 0 32.0864 0 29.75V4.25019C0 1.91376 1.99903 0.000212022 4.43982 0.000212022H115.435C117.876 0.000212022 119.875 1.91376 119.875 4.25019V29.75C119.875 32.0864 117.876 34 115.435 34Z" fill="#10161E"/>
<path d="M115.435 0.681269C117.491 0.681269 119.164 2.28245 119.164 4.25019V29.75C119.164 31.7178 117.491 33.3189 115.435 33.3189H4.43982C2.38418 33.3189 0.711481 31.7178 0.711481 29.75V4.25019C0.711481 2.28245 2.38418 0.681269 4.43982 0.681269H115.435ZM115.435 0.000212022H4.43982C1.99903 0.000212022 0 1.91376 0 4.25019V29.75C0 32.0864 1.99903 34 4.43982 34H115.435C117.876 34 119.875 32.0864 119.875 29.75V4.25019C119.875 1.91376 117.876 0.000212022 115.435 0.000212022Z" fill="#A6A6A6"/>
<path d="M9.26598 6.40801C9.00514 6.66938 8.85419 7.07631 8.85419 7.60331V26.4009C8.85419 26.9279 9.00514 27.3349 9.26598 27.5962L9.33036 27.6536L20.3344 17.1243V16.8757L9.33036 6.34638L9.26598 6.40801Z" fill="url(#paint0_linear_1_148)"/>
<path d="M23.9983 20.6364L20.3343 17.1249V16.8762L24.0027 13.3647L24.0848 13.4104L28.4292 15.7766C29.669 16.4481 29.669 17.5531 28.4292 18.2288L24.0848 20.5907L23.9983 20.6364Z" fill="url(#paint1_linear_1_148)"/>
<path d="M24.0846 20.5908L20.3341 17.0007L9.26562 27.5969C9.67742 28.0113 10.3489 28.0612 11.1126 27.6468L24.0846 20.5908Z" fill="url(#paint2_linear_1_148)"/>
<path d="M24.0845 13.4105L11.1125 6.35449C10.3488 5.94437 9.6773 5.9943 9.2655 6.40867L20.334 17.0007L24.0845 13.4105Z" fill="url(#paint3_linear_1_148)"/>
<path d="M42.1046 8.70786C42.1046 9.4176 41.8826 9.98604 41.4452 10.41C40.9424 10.9125 40.2876 11.1654 39.4851 11.1654C38.7181 11.1654 38.0632 10.9083 37.526 10.4015C36.9877 9.88722 36.7191 9.2561 36.7191 8.50067C36.7191 7.74524 36.9877 7.11412 37.526 6.60412C38.0632 6.09306 38.7181 5.83594 39.4851 5.83594C39.8669 5.83594 40.231 5.91137 40.5784 6.05162C40.9247 6.19294 41.2066 6.38418 41.4108 6.62006L40.9469 7.06843C40.5906 6.66575 40.1055 6.46706 39.4851 6.46706C38.9256 6.46706 38.4406 6.65406 38.0288 7.03124C37.6214 7.40949 37.4172 7.8993 37.4172 8.50067C37.4172 9.10204 37.6214 9.5961 38.0288 9.97435C38.4406 10.3473 38.9256 10.5385 39.4851 10.5385C40.0789 10.5385 40.5784 10.3473 40.9724 9.9701C41.2321 9.72041 41.3798 9.37616 41.4186 8.93629H39.4851V8.32217H42.0646C42.0957 8.45498 42.1046 8.58354 42.1046 8.70786Z" fill="white" stroke="white" stroke-width="0.132276" stroke-miterlimit="10"/>
<path d="M46.1968 6.57893H43.7738V8.19392H45.9582V8.80804H43.7738V10.423H46.1968V11.0488H43.0878V5.95312H46.1968V6.57893Z" fill="white" stroke="white" stroke-width="0.132276" stroke-miterlimit="10"/>
<path d="M49.0852 11.0488H48.3993V6.57893H46.913V5.95312H50.5725V6.57893H49.0852V11.0488Z" fill="white" stroke="white" stroke-width="0.132276" stroke-miterlimit="10"/>
<path d="M53.2209 11.0488V5.95312H53.9057V11.0488H53.2209Z" fill="white" stroke="white" stroke-width="0.132276" stroke-miterlimit="10"/>
<path d="M56.9415 11.0488H56.2611V6.57893H54.7693V5.95312H58.4333V6.57893H56.9415V11.0488Z" fill="white" stroke="white" stroke-width="0.132276" stroke-miterlimit="10"/>
<path d="M65.3616 10.393C64.8366 10.9083 64.1862 11.1654 63.4103 11.1654C62.63 11.1654 61.9796 10.9083 61.4546 10.393C60.9307 9.87872 60.6699 9.2476 60.6699 8.50067C60.6699 7.75374 60.9307 7.12262 61.4546 6.60837C61.9796 6.09306 62.63 5.83594 63.4103 5.83594C64.1818 5.83594 64.8322 6.09306 65.3572 6.61262C65.8855 7.13112 66.1464 7.75799 66.1464 8.50067C66.1464 9.2476 65.8855 9.87872 65.3616 10.393ZM61.9619 9.96585C62.357 10.3473 62.8376 10.5385 63.4103 10.5385C63.9786 10.5385 64.4637 10.3473 64.8544 9.96585C65.2484 9.58441 65.4482 9.0946 65.4482 8.50067C65.4482 7.90674 65.2484 7.41693 64.8544 7.03549C64.4637 6.65406 63.9786 6.46281 63.4103 6.46281C62.8376 6.46281 62.357 6.65406 61.9619 7.03549C61.5678 7.41693 61.368 7.90674 61.368 8.50067C61.368 9.0946 61.5678 9.58441 61.9619 9.96585Z" fill="white" stroke="white" stroke-width="0.132276" stroke-miterlimit="10"/>
<path d="M67.1085 11.0488V5.95312H67.9409L70.5293 9.91622H70.5593L70.5293 8.93661V5.95312H71.2142V11.0488H70.4994L67.7889 6.89024H67.7589L67.7889 7.87411V11.0488H67.1085Z" fill="white" stroke="white" stroke-width="0.132276" stroke-miterlimit="10"/>
<path d="M60.5011 18.4902C58.4155 18.4902 56.7117 20.0096 56.7117 22.1059C56.7117 24.1852 58.4155 25.7205 60.5011 25.7205C62.5911 25.7205 64.2949 24.1852 64.2949 22.1059C64.2949 20.0096 62.5911 18.4902 60.5011 18.4902ZM60.5011 24.2968C59.3567 24.2968 58.3722 23.3926 58.3722 22.1059C58.3722 20.8022 59.3567 19.914 60.5011 19.914C61.6455 19.914 62.6344 20.8022 62.6344 22.1059C62.6344 23.3926 61.6455 24.2968 60.5011 24.2968ZM52.233 18.4902C50.143 18.4902 48.4437 20.0096 48.4437 22.1059C48.4437 24.1852 50.143 25.7205 52.233 25.7205C54.322 25.7205 56.0224 24.1852 56.0224 22.1059C56.0224 20.0096 54.322 18.4902 52.233 18.4902ZM52.233 24.2968C51.0876 24.2968 50.0997 23.3926 50.0997 22.1059C50.0997 20.8022 51.0876 19.914 52.233 19.914C53.3774 19.914 54.3619 20.8022 54.3619 22.1059C54.3619 23.3926 53.3774 24.2968 52.233 24.2968ZM42.3944 19.5984V21.1348H46.2271C46.115 21.9933 45.8153 22.6244 45.3558 23.0643C44.7963 23.5955 43.925 24.1852 42.3944 24.1852C40.0357 24.1852 38.1888 22.363 38.1888 20.1052C38.1888 17.8474 40.0357 16.0253 42.3944 16.0253C43.6697 16.0253 44.5977 16.5023 45.2825 17.1207L46.4135 16.038C45.4557 15.1625 44.1814 14.49 42.3944 14.49C39.16 14.49 36.4417 17.0091 36.4417 20.1052C36.4417 23.2013 39.16 25.7205 42.3944 25.7205C44.1426 25.7205 45.4557 25.1723 46.4879 24.1438C47.5457 23.1312 47.8754 21.7075 47.8754 20.5579C47.8754 20.2009 47.8443 19.8726 47.7888 19.5984H42.3944ZM82.6258 20.7895C82.3139 19.9809 81.3516 18.4902 79.3914 18.4902C77.449 18.4902 75.8318 19.9554 75.8318 22.1059C75.8318 24.131 77.4323 25.7205 79.5779 25.7205C81.3128 25.7205 82.3139 24.708 82.7257 24.1183L81.4382 23.297C81.0086 23.8983 80.4237 24.2968 79.5779 24.2968C78.7377 24.2968 78.1349 23.9281 77.7487 23.2013L82.8001 21.2007L82.6258 20.7895ZM77.4756 21.9933C77.4323 20.5993 78.6067 19.8853 79.448 19.8853C80.1073 19.8853 80.6668 20.2009 80.8532 20.6524L77.4756 21.9933ZM73.3699 25.5006H75.0304V14.8756H73.3699V25.5006ZM70.6505 19.2956H70.595C70.2221 18.8727 69.5106 18.4902 68.6093 18.4902C66.718 18.4902 64.9886 20.0797 64.9886 22.1176C64.9886 24.1438 66.718 25.7205 68.6093 25.7205C69.5106 25.7205 70.2221 25.3348 70.595 24.8992H70.6505V25.4177C70.6505 26.8 69.8791 27.5427 68.6348 27.5427C67.6203 27.5427 66.991 26.8414 66.7313 26.2518L65.2872 26.8287C65.7035 27.7871 66.8056 28.9664 68.6348 28.9664C70.5817 28.9664 72.2244 27.8699 72.2244 25.202V18.7102H70.6505V19.2956ZM68.7514 24.2968C67.607 24.2968 66.6491 23.3798 66.6491 22.1176C66.6491 20.8437 67.607 19.914 68.7514 19.914C69.8791 19.914 70.7682 20.8437 70.7682 22.1176C70.7682 23.3798 69.8791 24.2968 68.7514 24.2968ZM90.4 14.8756H86.4285V25.5006H88.0846V21.4748H90.4C92.2391 21.4748 94.0428 20.2009 94.0428 18.1747C94.0428 16.1496 92.2347 14.8756 90.4 14.8756ZM90.4432 19.9969H88.0846V16.3536H90.4432C91.6797 16.3536 92.3857 17.3364 92.3857 18.1747C92.3857 18.9971 91.6797 19.9969 90.4432 19.9969ZM100.68 18.4701C99.4838 18.4701 98.2396 18.9758 97.7279 20.0967L99.1975 20.6864C99.5138 20.0967 100.095 19.9055 100.71 19.9055C101.569 19.9055 102.441 20.3995 102.454 21.2719V21.3834C102.154 21.2177 101.513 20.9722 100.724 20.9722C99.1408 20.9722 97.5281 21.8063 97.5281 23.3628C97.5281 24.7866 98.8245 25.7035 100.282 25.7035C101.396 25.7035 102.011 25.2222 102.397 24.6623H102.454V25.4836H104.054V21.4079C104.054 19.5241 102.584 18.4701 100.68 18.4701ZM100.481 24.2925C99.9389 24.2925 99.1841 24.0354 99.1841 23.3926C99.1841 22.5702 100.125 22.2547 100.94 22.2547C101.669 22.2547 102.011 22.4087 102.454 22.6117C102.324 23.5955 101.44 24.2925 100.481 24.2925ZM109.881 18.7027L107.977 23.3087H107.921L105.953 18.7027H104.167L107.124 25.1393L105.437 28.721H107.167L111.723 18.7027H109.881ZM94.953 25.5006H96.6135V14.8756H94.953V25.5006Z" fill="white"/>
<defs>
<linearGradient id="paint0_linear_1_148" x1="19.3574" y1="26.5967" x2="5.10608" y2="11.7088" gradientUnits="userSpaceOnUse">
<stop stop-color="#00A0FF"/>
<stop offset="0.0066" stop-color="#00A1FF"/>
<stop offset="0.2601" stop-color="#00BEFF"/>
<stop offset="0.5122" stop-color="#00D2FF"/>
<stop offset="0.7604" stop-color="#00DFFF"/>
<stop offset="1" stop-color="#00E3FF"/>
</linearGradient>
<linearGradient id="paint1_linear_1_148" x1="30.0436" y1="16.9994" x2="8.55767" y2="16.9994" gradientUnits="userSpaceOnUse">
<stop stop-color="#FFE000"/>
<stop offset="0.4087" stop-color="#FFBD00"/>
<stop offset="0.7754" stop-color="#FFA500"/>
<stop offset="1" stop-color="#FF9C00"/>
</linearGradient>
<linearGradient id="paint2_linear_1_148" x1="22.0452" y1="15.049" x2="2.71923" y2="-5.14029" gradientUnits="userSpaceOnUse">
<stop stop-color="#FF3A44"/>
<stop offset="1" stop-color="#C31162"/>
</linearGradient>
<linearGradient id="paint3_linear_1_148" x1="6.47934" y1="33.8508" x2="15.1093" y2="24.8355" gradientUnits="userSpaceOnUse">
<stop stop-color="#32A071"/>
<stop offset="0.0685" stop-color="#2DA771"/>
<stop offset="0.4762" stop-color="#15CF74"/>
<stop offset="0.8009" stop-color="#06E775"/>
<stop offset="1" stop-color="#00F076"/>
</linearGradient>
</defs>
</svg>
