<svg width="120" height="34" viewBox="0 0 120 34" fill="none" xmlns="http://www.w3.org/2000/svg">
<path d="M118.387 29.2553C118.387 31.0175 116.872 32.445 114.997 32.445H4.05587C2.18222 32.445 0.661377 31.0175 0.661377 29.2553V3.81784C0.661377 2.05639 2.18222 0.623901 4.05587 0.623901H114.996C116.872 0.623901 118.386 2.05639 118.386 3.81784L118.387 29.2553Z" fill="#10161E"/>
<path d="M114.639 0.662426C116.681 0.662426 118.342 2.21977 118.342 4.13364V28.9354C118.342 30.8493 116.681 32.4066 114.639 32.4066H4.4092C2.36774 32.4066 0.706574 30.8493 0.706574 28.9354V4.13364C0.706574 2.21977 2.36774 0.662426 4.4092 0.662426H114.639ZM114.639 1.52588e-05H4.4092C1.98524 1.52588e-05 0 1.86118 0 4.13364V28.9354C0 31.2079 1.98524 33.069 4.4092 33.069H114.639C117.063 33.069 119.048 31.2079 119.048 28.9354V4.13364C119.048 1.86118 117.063 1.52588e-05 114.639 1.52588e-05Z" fill="#A6A6A6"/>
<path d="M26.5681 16.356C26.5425 13.6914 28.8953 12.3951 29.0029 12.3348C27.6704 10.5135 25.6051 10.2646 24.8794 10.2448C23.1448 10.0737 21.4622 11.2179 20.5786 11.2179C19.6774 11.2179 18.3167 10.2613 16.8502 10.2894C14.9631 10.3167 13.1976 11.341 12.2294 12.9317C10.2311 16.1749 11.7214 20.941 13.6359 23.5625C14.5936 24.8464 15.7126 26.28 17.1774 26.2295C18.6104 26.1741 19.1456 25.373 20.8749 25.373C22.5884 25.373 23.091 26.2295 24.5848 26.1973C26.1228 26.1741 27.091 24.9076 28.0152 23.6121C29.1219 22.1406 29.5664 20.6913 29.584 20.6169C29.5478 20.6053 26.5972 19.5496 26.5681 16.356Z" fill="white"/>
<path d="M23.7462 8.52025C24.5169 7.61664 25.0443 6.3873 24.8979 5.13977C23.7824 5.18607 22.3873 5.86316 21.5839 6.74692C20.8732 7.5257 20.2382 8.80216 20.4023 10.0026C21.6554 10.0902 22.942 9.40981 23.7462 8.52025Z" fill="white"/>
<path d="M43.2543 8.27466C43.2543 9.24772 42.943 9.9802 42.3213 10.4721C41.7454 10.926 40.9271 11.1533 39.8671 11.1533C39.3415 11.1533 38.8918 11.1318 38.5153 11.0888V5.77216C39.0064 5.69776 39.5355 5.65973 40.107 5.65973C41.1167 5.65973 41.8777 5.86558 42.3909 6.27729C42.9659 6.74274 43.2543 7.40825 43.2543 8.27466ZM42.2798 8.29864C42.2798 7.66785 42.1017 7.18421 41.7454 6.84691C41.3892 6.51043 40.8689 6.34178 40.1837 6.34178C39.8927 6.34178 39.6449 6.35997 39.4394 6.39799V10.4399C39.5532 10.4564 39.7613 10.4638 40.0638 10.4638C40.771 10.4638 41.3169 10.2795 41.7014 9.91075C42.0858 9.54203 42.2798 9.00466 42.2798 8.29864Z" fill="white"/>
<path d="M48.421 9.12456C48.421 9.72394 48.2384 10.215 47.8734 10.6003C47.4906 10.9963 46.9836 11.1939 46.3504 11.1939C45.7402 11.1939 45.2543 11.0045 44.8919 10.6242C44.5303 10.2448 44.3495 9.7661 44.3495 9.18904C44.3495 8.58553 44.5356 8.09033 44.9095 7.7059C45.2834 7.32147 45.786 7.12885 46.4192 7.12885C47.0294 7.12885 47.5197 7.31817 47.891 7.69763C48.2437 8.06635 48.421 8.54255 48.421 9.12456ZM47.4624 9.15267C47.4624 8.79304 47.3795 8.48467 47.2146 8.22756C47.0206 7.91671 46.7446 7.76129 46.3857 7.76129C46.0144 7.76129 45.7322 7.91671 45.5382 8.22756C45.3725 8.48467 45.2904 8.798 45.2904 9.16838C45.2904 9.528 45.3733 9.83637 45.5382 10.0935C45.7384 10.4043 46.0171 10.5598 46.3769 10.5598C46.7296 10.5598 47.0065 10.4019 47.2058 10.0852C47.3769 9.82314 47.4624 9.51229 47.4624 9.15267Z" fill="white"/>
<path d="M55.3487 7.20819L54.048 11.1054H53.2014L52.6626 9.41307C52.5259 8.99061 52.4148 8.57063 52.3284 8.15396H52.3117C52.2314 8.58221 52.1203 9.00136 51.9774 9.41307L51.4051 11.1054H50.5489L49.3257 7.20819H50.2755L50.7455 9.06088C50.8593 9.49905 50.9527 9.91654 51.0277 10.3117H51.0444C51.1132 9.98599 51.227 9.57097 51.3875 9.06915L51.9774 7.20902H52.7305L53.2958 9.02947C53.4325 9.47342 53.5436 9.90084 53.6291 10.3125H53.6547C53.7173 9.91158 53.8117 9.48417 53.9369 9.02947L54.4413 7.20902H55.3487V7.20819Z" fill="white"/>
<path d="M60.1398 11.1054H59.2156V8.87321C59.2156 8.18538 58.9369 7.84146 58.3778 7.84146C58.1036 7.84146 57.8823 7.93571 57.7103 8.12503C57.5401 8.31435 57.4537 8.53756 57.4537 8.79302V11.1045H56.5295V8.32179C56.5295 7.97952 56.518 7.60832 56.496 7.20654H57.3082L57.3514 7.81583H57.377C57.4845 7.62651 57.645 7.47026 57.8558 7.34543C58.1062 7.19992 58.3867 7.12634 58.6935 7.12634C59.0816 7.12634 59.4043 7.24374 59.6609 7.47935C59.9801 7.76788 60.1398 8.19861 60.1398 8.7707V11.1054Z" fill="white"/>
<path d="M62.6883 11.1054H61.765V5.41998H62.6883V11.1054Z" fill="white"/>
<path d="M68.1292 9.12456C68.1292 9.72394 67.9467 10.215 67.5816 10.6003C67.1989 10.9963 66.6909 11.1939 66.0587 11.1939C65.4476 11.1939 64.9617 11.0045 64.6001 10.6242C64.2385 10.2448 64.0578 9.7661 64.0578 9.18904C64.0578 8.58553 64.2438 8.09033 64.6177 7.7059C64.9916 7.32147 65.4943 7.12885 66.1266 7.12885C66.7377 7.12885 67.2271 7.31817 67.5992 7.69763C67.952 8.06635 68.1292 8.54255 68.1292 9.12456ZM67.1698 9.15267C67.1698 8.79304 67.0869 8.48467 66.922 8.22756C66.7289 7.91671 66.452 7.76129 66.0939 7.76129C65.7218 7.76129 65.4396 7.91671 65.2465 8.22756C65.0807 8.48467 64.9987 8.798 64.9987 9.16838C64.9987 9.528 65.0816 9.83637 65.2465 10.0935C65.4467 10.4043 65.7253 10.5598 66.0851 10.5598C66.4379 10.5598 66.7139 10.4019 66.9132 10.0852C67.0851 9.82314 67.1698 9.51229 67.1698 9.15267Z" fill="white"/>
<path d="M72.6019 11.1054H71.7721L71.7033 10.6565H71.6778C71.3938 11.0145 70.989 11.1939 70.4635 11.1939C70.071 11.1939 69.7536 11.0756 69.5146 10.8408C69.2977 10.6275 69.1892 10.3622 69.1892 10.0472C69.1892 9.57099 69.4008 9.20806 69.8268 8.95673C70.2518 8.70541 70.8497 8.58223 71.6196 8.58801V8.51526C71.6196 8.00187 71.3321 7.74558 70.7562 7.74558C70.3462 7.74558 69.9846 7.84231 69.6725 8.03411L69.4846 7.46532C69.8709 7.24128 70.3479 7.12885 70.9106 7.12885C71.997 7.12885 72.542 7.66622 72.542 8.74096V10.1762C72.542 10.5655 72.5622 10.8756 72.6019 11.1054ZM71.6425 9.7661V9.16507C70.6231 9.14854 70.1134 9.41061 70.1134 9.95046C70.1134 10.1538 70.1716 10.306 70.2906 10.4076C70.4097 10.5093 70.5614 10.5598 70.7421 10.5598C70.9449 10.5598 71.1345 10.4994 71.3074 10.3795C71.4811 10.2588 71.5878 10.1059 71.6275 9.91822C71.6372 9.87605 71.6425 9.8248 71.6425 9.7661Z" fill="white"/>
<path d="M77.8533 11.1054H77.0332L76.99 10.4795H76.9644C76.7025 10.9557 76.2563 11.1938 75.6293 11.1938C75.1284 11.1938 74.7113 11.0095 74.3806 10.6408C74.0499 10.272 73.885 9.79336 73.885 9.20556C73.885 8.57477 74.0641 8.06385 74.4238 7.67364C74.7722 7.30988 75.199 7.128 75.7069 7.128C76.2651 7.128 76.6558 7.30409 76.878 7.6571H76.8956V5.41998H77.8207V10.0554C77.8207 10.4349 77.8313 10.7846 77.8533 11.1054ZM76.8956 9.46184V8.81204C76.8956 8.6996 76.8868 8.60866 76.8701 8.53922C76.818 8.33088 76.706 8.15562 76.5358 8.01425C76.3639 7.87288 76.1566 7.80178 75.9177 7.80178C75.5729 7.80178 75.303 7.92992 75.1046 8.18703C74.908 8.44414 74.8083 8.77235 74.8083 9.17332C74.8083 9.55857 74.9027 9.87107 75.0923 10.1116C75.2925 10.3679 75.5623 10.4961 75.9 10.4961C76.2034 10.4961 76.4459 10.3894 76.6302 10.1753C76.8083 9.97772 76.8956 9.73962 76.8956 9.46184Z" fill="white"/>
<path d="M85.7572 9.12456C85.7572 9.72394 85.5747 10.215 85.2096 10.6003C84.8269 10.9963 84.3207 11.1939 83.6867 11.1939C83.0773 11.1939 82.5914 11.0045 82.2281 10.6242C81.8665 10.2448 81.6858 9.7661 81.6858 9.18904C81.6858 8.58553 81.8718 8.09033 82.2457 7.7059C82.6196 7.32147 83.1223 7.12885 83.7563 7.12885C84.3657 7.12885 84.8569 7.31817 85.2272 7.69763C85.58 8.06635 85.7572 8.54255 85.7572 9.12456ZM84.7995 9.15267C84.7995 8.79304 84.7166 8.48467 84.5517 8.22756C84.3569 7.91671 84.0817 7.76129 83.7219 7.76129C83.3516 7.76129 83.0694 7.91671 82.8745 8.22756C82.7087 8.48467 82.6267 8.798 82.6267 9.16838C82.6267 9.528 82.7096 9.83637 82.8745 10.0935C83.0747 10.4043 83.3533 10.5598 83.7131 10.5598C84.0658 10.5598 84.3436 10.4019 84.5429 10.0852C84.7131 9.82314 84.7995 9.51229 84.7995 9.15267Z" fill="white"/>
<path d="M90.7264 11.1054H89.8031V8.87321C89.8031 8.18538 89.5245 7.84146 88.9645 7.84146C88.6902 7.84146 88.4689 7.93571 88.2978 8.12503C88.1267 8.31435 88.0412 8.53756 88.0412 8.79302V11.1045H87.1162V8.32179C87.1162 7.97952 87.1056 7.60832 87.0835 7.20654H87.8948L87.938 7.81583H87.9636C88.0721 7.62651 88.2326 7.47026 88.4424 7.34543C88.6938 7.19992 88.9733 7.12634 89.2811 7.12634C89.6682 7.12634 89.9909 7.24374 90.2476 7.47935C90.5677 7.76788 90.7264 8.19861 90.7264 8.7707V11.1054Z" fill="white"/>
<path d="M96.946 7.85716H95.9284V9.75037C95.9284 10.2315 96.1092 10.4721 96.4672 10.4721C96.633 10.4721 96.7706 10.4589 96.879 10.4316L96.9028 11.0888C96.7203 11.1533 96.4804 11.1856 96.185 11.1856C95.8199 11.1856 95.536 11.0814 95.3305 10.8731C95.1242 10.6647 95.0219 10.3142 95.0219 9.82229V7.85716H94.4143V7.20819H95.0219V6.49389L95.9275 6.23761V7.20736H96.9452V7.85716H96.946Z" fill="white"/>
<path d="M101.838 11.1054H100.913V8.88975C100.913 8.19117 100.635 7.84146 100.077 7.84146C99.648 7.84146 99.3552 8.04401 99.1947 8.4491C99.1674 8.53426 99.1515 8.63842 99.1515 8.76078V11.1045H98.2282V5.41998H99.1515V7.76871H99.1691C99.4601 7.34129 99.8773 7.128 100.418 7.128C100.801 7.128 101.117 7.24539 101.368 7.48101C101.682 7.7745 101.838 8.21101 101.838 8.78806V11.1054Z" fill="white"/>
<path d="M106.885 8.97244C106.885 9.12786 106.873 9.25848 106.851 9.36513H104.079C104.092 9.75039 104.224 10.0439 104.48 10.2472C104.715 10.4291 105.017 10.5201 105.388 10.5201C105.798 10.5201 106.172 10.4589 106.509 10.3357L106.653 10.9376C106.259 11.0979 105.795 11.1781 105.258 11.1781C104.614 11.1781 104.107 11.0004 103.741 10.6449C103.372 10.2894 103.189 9.81239 103.189 9.21384C103.189 8.62604 103.36 8.13662 103.703 7.7464C104.061 7.32973 104.545 7.1214 105.156 7.1214C105.754 7.1214 106.208 7.32973 106.515 7.7464C106.763 8.07709 106.885 8.48632 106.885 8.97244ZM106.003 8.74839C106.01 8.49128 105.95 8.26972 105.824 8.08288C105.664 7.8423 105.42 7.7216 105.089 7.7216C104.787 7.7216 104.541 7.839 104.353 8.07461C104.2 8.26228 104.109 8.48632 104.079 8.74839H106.003Z" fill="white"/>
<path d="M47.3063 26.0452H45.3037L44.2067 22.8135H40.3936L39.3486 26.0452H37.3989L41.1767 15.0431H43.51L47.3063 26.0452ZM43.876 21.4577L42.8839 18.5848C42.779 18.2913 42.5823 17.6002 42.2922 16.5122H42.2569C42.1414 16.9801 41.9553 17.6713 41.6996 18.5848L40.7252 21.4577H43.876Z" fill="white"/>
<path d="M57.0216 21.981C57.0216 23.3302 56.6327 24.3967 55.8549 25.1796C55.1582 25.8765 54.2931 26.2246 53.2605 26.2246C52.1459 26.2246 51.3451 25.8492 50.8575 25.0986H50.8222V29.2777H48.9421V20.7235C48.9421 19.8753 48.9183 19.0048 48.8725 18.1119H50.5259L50.6309 19.3694H50.6661C51.2931 18.4219 52.2446 17.949 53.5215 17.949C54.5198 17.949 55.3531 18.3186 56.0198 19.0585C56.6882 19.7992 57.0216 20.7731 57.0216 21.981ZM55.1062 22.0455C55.1062 21.2733 54.921 20.6367 54.5489 20.1357C54.1423 19.6132 53.5965 19.352 52.9122 19.352C52.4483 19.352 52.0268 19.4975 51.6503 19.7844C51.2728 20.0737 51.0259 20.4515 50.9104 20.9195C50.8522 21.1377 50.8231 21.3163 50.8231 21.4568V22.7796C50.8231 23.3566 51.0118 23.8436 51.3892 24.2412C51.7667 24.6389 52.257 24.8373 52.8602 24.8373C53.5683 24.8373 54.1194 24.581 54.5136 24.0701C54.9087 23.5584 55.1062 22.8838 55.1062 22.0455Z" fill="white"/>
<path d="M66.7545 21.981C66.7545 23.3302 66.3656 24.3967 65.5869 25.1796C64.8911 25.8765 64.0261 26.2246 62.9934 26.2246C61.8788 26.2246 61.0781 25.8492 60.5913 25.0986H60.556V29.2777H58.6759V20.7235C58.6759 19.8753 58.6521 19.0048 58.6063 18.1119H60.2597L60.3647 19.3694H60.3999C61.026 18.4219 61.9775 17.949 63.2553 17.949C64.2527 17.949 65.086 18.3186 65.7545 19.0585C66.4203 19.7992 66.7545 20.7731 66.7545 21.981ZM64.8391 22.0455C64.8391 21.2733 64.653 20.6367 64.2809 20.1357C63.8744 19.6132 63.3303 19.352 62.6451 19.352C62.1804 19.352 61.7597 19.4975 61.3823 19.7844C61.0049 20.0737 60.7588 20.4515 60.6433 20.9195C60.586 21.1377 60.556 21.3163 60.556 21.4568V22.7796C60.556 23.3566 60.7447 23.8436 61.1204 24.2412C61.4978 24.6381 61.9881 24.8373 62.5931 24.8373C63.3012 24.8373 63.8523 24.581 64.2465 24.0701C64.6416 23.5584 64.8391 22.8838 64.8391 22.0455Z" fill="white"/>
<path d="M77.6363 22.9598C77.6363 23.8956 77.2898 24.657 76.594 25.2448C75.8295 25.8872 74.7651 26.208 73.3973 26.208C72.1345 26.208 71.1222 25.9798 70.3559 25.5226L70.7915 24.0535C71.6169 24.5215 72.5226 24.7562 73.5093 24.7562C74.2174 24.7562 74.7686 24.6058 75.1645 24.3065C75.5587 24.0072 75.7554 23.6054 75.7554 23.1044C75.7554 22.658 75.5931 22.2819 75.2677 21.9768C74.9441 21.6717 74.4035 21.3882 73.6487 21.1261C71.594 20.4077 70.5675 19.3552 70.5675 17.9713C70.5675 17.0669 70.9273 16.3253 71.6478 15.7482C72.3656 15.1704 73.3233 14.8818 74.5208 14.8818C75.5887 14.8818 76.4758 15.0563 77.184 15.4043L76.7139 16.8412C76.0526 16.5039 75.3048 16.3352 74.4679 16.3352C73.8065 16.3352 73.2898 16.4882 72.9194 16.7924C72.6063 17.0644 72.4494 17.3959 72.4494 17.7886C72.4494 18.2235 72.6284 18.5831 72.9882 18.8658C73.3012 19.1271 73.87 19.4098 74.6954 19.7149C75.7051 20.096 76.4467 20.5416 76.9238 21.0525C77.3991 21.5618 77.6363 22.1992 77.6363 22.9598Z" fill="white"/>
<path d="M83.8524 19.4347H81.7801V23.2864C81.7801 24.266 82.1452 24.7555 82.8771 24.7555C83.2131 24.7555 83.4918 24.7282 83.7122 24.6736L83.7643 26.0121C83.3939 26.1419 82.9062 26.2072 82.3022 26.2072C81.5597 26.2072 80.9794 25.9947 80.5605 25.5706C80.1434 25.1457 79.9335 24.433 79.9335 23.4319V19.433H78.699V18.1102H79.9335V16.6577L81.7801 16.1352V18.1102H83.8524V19.4347Z" fill="white"/>
<path d="M93.2026 22.0132C93.2026 23.2326 92.8305 24.2338 92.088 25.0167C91.3093 25.8227 90.2758 26.2245 88.9874 26.2245C87.7458 26.2245 86.7572 25.8384 86.02 25.0663C85.2828 24.2941 84.9142 23.3194 84.9142 22.1446C84.9142 20.9153 85.2934 19.9083 86.0544 19.1254C86.8137 18.3417 87.8384 17.9498 89.1267 17.9498C90.3684 17.9498 91.3675 18.3359 92.1215 19.1089C92.8428 19.8587 93.2026 20.8268 93.2026 22.0132ZM91.252 22.0702C91.252 21.3386 91.0853 20.7111 90.7476 20.1878C90.3534 19.5545 89.7899 19.2387 89.0597 19.2387C88.304 19.2387 87.7299 19.5553 87.3357 20.1878C86.998 20.7119 86.8313 21.3493 86.8313 22.1033C86.8313 22.8349 86.998 23.4624 87.3357 23.9849C87.7422 24.6182 88.3101 24.934 89.043 24.934C89.7608 24.934 90.3243 24.6116 90.7308 23.9684C91.0774 23.4352 91.252 22.8011 91.252 22.0702Z" fill="white"/>
<path d="M99.3138 19.662C99.1277 19.6298 98.9293 19.6132 98.7212 19.6132C98.0598 19.6132 97.5483 19.8472 97.1885 20.3159C96.8755 20.7293 96.7185 21.2518 96.7185 21.8826V26.0452H94.8393L94.8569 20.6103C94.8569 19.6959 94.8331 18.8634 94.7864 18.1127H96.424L96.4927 19.6306H96.5448C96.7432 19.1089 97.0562 18.689 97.4848 18.374C97.9037 18.0904 98.3561 17.949 98.8437 17.949C99.0175 17.949 99.1744 17.9606 99.3138 17.9813V19.662Z" fill="white"/>
<path d="M107.722 21.7032C107.722 22.019 107.7 22.2852 107.653 22.5026H102.013C102.035 23.2864 102.308 23.8857 102.831 24.2991C103.307 24.6686 103.921 24.8538 104.676 24.8538C105.511 24.8538 106.273 24.729 106.958 24.4785L107.253 25.7021C106.452 26.0294 105.507 26.1923 104.416 26.1923C103.104 26.1923 102.074 25.8302 101.324 25.1068C100.577 24.3834 100.202 23.412 100.202 22.1934C100.202 20.9972 100.55 20.001 101.248 19.2065C101.978 18.3583 102.965 17.9341 104.206 17.9341C105.426 17.9341 106.349 18.3583 106.976 19.2065C107.473 19.8803 107.722 20.7136 107.722 21.7032ZM105.929 21.246C105.942 20.7235 105.819 20.2721 105.564 19.891C105.239 19.4008 104.739 19.156 104.066 19.156C103.451 19.156 102.951 19.395 102.57 19.8745C102.256 20.2556 102.07 20.7128 102.013 21.2452H105.929V21.246Z" fill="white"/>
</svg>
