<svg width="17" height="17" viewBox="0 0 17 17" fill="none" xmlns="http://www.w3.org/2000/svg">
<g clip-path="url(#clip0_1_141)">
<path d="M5.55388 15.3448C11.7918 15.3448 15.2046 10.1755 15.2046 5.69403C15.2046 5.54871 15.2014 5.40015 15.1949 5.25483C15.8588 4.77471 16.4318 4.18001 16.8868 3.49868C16.2685 3.77378 15.612 3.95344 14.9398 4.03154C15.6476 3.60727 16.1776 2.94077 16.4315 2.15558C15.7656 2.5502 15.0374 2.82856 14.2781 2.97875C13.7665 2.43515 13.0901 2.07521 12.3534 1.9546C11.6167 1.834 10.8608 1.95943 10.2025 2.31151C9.5443 2.66359 9.02037 3.2227 8.71176 3.90241C8.40315 4.58212 8.32705 5.34457 8.49522 6.07187C7.14694 6.00421 5.82793 5.65396 4.6237 5.04383C3.41946 4.43371 2.35689 3.57732 1.50487 2.53019C1.07182 3.27681 0.939309 4.1603 1.13426 5.00112C1.32921 5.84193 1.837 6.57696 2.55442 7.05683C2.01582 7.03973 1.48903 6.89472 1.01755 6.63378V6.67576C1.01707 7.45929 1.28794 8.2188 1.78412 8.82519C2.2803 9.43158 2.97117 9.84743 3.73929 10.002C3.24036 10.1386 2.71672 10.1584 2.20887 10.0602C2.42562 10.734 2.84733 11.3234 3.41515 11.746C3.98298 12.1686 4.66857 12.4034 5.37627 12.4176C4.17481 13.3614 2.69067 13.8733 1.16287 13.8709C0.891931 13.8704 0.621256 13.8538 0.352295 13.8211C1.90437 14.8169 3.70985 15.3457 5.55388 15.3448Z" fill="white"/>
</g>
<defs>
<clipPath id="clip0_1_141">
<rect width="16.5345" height="16.5345" fill="white" transform="translate(0.352295 0.360352)"/>
</clipPath>
</defs>
</svg>
