<svg width="17" height="17" viewBox="0 0 17 17" fill="none" xmlns="http://www.w3.org/2000/svg">
<g clip-path="url(#clip0_1_144)">
<path d="M15.6629 0.310303H1.57301C0.898063 0.310303 0.352295 0.843153 0.352295 1.50195V15.6499C0.352295 16.3087 0.898063 16.8448 1.57301 16.8448H15.6629C16.3378 16.8448 16.8868 16.3087 16.8868 15.6532V1.50195C16.8868 0.843153 16.3378 0.310303 15.6629 0.310303ZM5.25775 14.4002H2.80341V6.50751H5.25775V14.4002ZM4.03058 5.43213C3.2426 5.43213 2.60641 4.79593 2.60641 4.01119C2.60641 3.22645 3.2426 2.59026 4.03058 2.59026C4.81532 2.59026 5.45151 3.22645 5.45151 4.01119C5.45151 4.7927 4.81532 5.43213 4.03058 5.43213ZM14.4421 14.4002H11.991V10.5636C11.991 9.64972 11.9749 8.47099 10.7154 8.47099C9.43982 8.47099 9.24605 9.46887 9.24605 10.499V14.4002H6.79817V6.50751H9.14917V7.58613H9.18146C9.50763 6.96609 10.3085 6.31052 11.5002 6.31052C13.9836 6.31052 14.4421 7.9446 14.4421 10.0695V14.4002Z" fill="white"/>
</g>
<defs>
<clipPath id="clip0_1_144">
<rect width="16.5345" height="16.5345" fill="white" transform="translate(0.352295 0.310303)"/>
</clipPath>
</defs>
</svg>
