<svg width="17" height="17" viewBox="0 0 17 17" fill="none" xmlns="http://www.w3.org/2000/svg">
<g clip-path="url(#clip0_1_138)">
<path d="M16.8868 8.67741C16.8868 4.11153 13.1854 0.410156 8.61955 0.410156C4.05367 0.410156 0.352295 4.11153 0.352295 8.67741C0.352295 12.8038 3.37549 16.224 7.32779 16.8442V11.0672H5.22868V8.67741H7.32779V6.85603C7.32779 4.78405 8.56207 3.63955 10.4505 3.63955C11.3547 3.63955 12.3011 3.80102 12.3011 3.80102V5.83554H11.2586C10.2317 5.83554 9.91131 6.47286 9.91131 7.1273V8.67741H12.2042L11.8376 11.0672H9.91131V16.8442C13.8636 16.224 16.8868 12.8038 16.8868 8.67741Z" fill="white"/>
</g>
<defs>
<clipPath id="clip0_1_138">
<rect width="16.5345" height="16.5345" fill="white" transform="translate(0.352295 0.410156)"/>
</clipPath>
</defs>
</svg>
