<svg width="21" height="21" viewBox="0 0 21 21" fill="none" xmlns="http://www.w3.org/2000/svg">
<path d="M11.6602 0.981934V2.33398C12.9975 2.33398 14.2503 2.67199 15.4187 3.34802C16.5307 4.00996 17.4176 4.89724 18.0792 6.00986C18.7548 7.17882 19.0927 8.43228 19.0927 9.77025H20.444C20.444 8.17878 20.0429 6.69997 19.2405 5.33384C18.4663 4.00996 17.4176 2.96071 16.0943 2.1861C14.7289 1.38332 13.2509 0.981934 11.6602 0.981934ZM4.67111 3.01001C4.29104 3.01001 3.96024 3.12972 3.67871 3.36914L1.50386 5.58735L1.5672 5.5451C1.21529 5.84086 0.983021 6.20704 0.870407 6.64364C0.77187 7.08024 0.800024 7.50275 0.954867 7.91118C1.34901 9.00972 1.87689 10.1364 2.53849 11.2913C3.46756 12.8828 4.57258 14.3123 5.85355 15.5798C7.90875 17.6502 10.4637 19.2839 13.5183 20.481H13.5394C13.9476 20.6218 14.3559 20.65 14.7641 20.5655C15.1864 20.481 15.5594 20.2979 15.8832 20.0162L18.0158 17.8825C18.2973 17.6009 18.4381 17.2558 18.4381 16.8474C18.4381 16.4249 18.2973 16.0728 18.0158 15.7911L15.2497 13.0025C14.9682 12.7208 14.6163 12.58 14.194 12.58C13.7717 12.58 13.4198 12.7208 13.1382 13.0025L11.808 14.3545C10.7382 13.8475 9.8091 13.2208 9.02081 12.4743C8.23251 11.7138 7.6061 10.7913 7.14157 9.70687L8.49293 8.35482C8.78854 8.04498 8.93635 7.6788 8.93635 7.25628C8.93635 6.81968 8.76743 6.46759 8.42959 6.2L8.49293 6.26337L5.66352 3.36914C5.38198 3.12972 5.05118 3.01001 4.67111 3.01001ZM11.6602 3.68603V5.03808C12.5189 5.03808 13.3072 5.24934 14.0251 5.67185C14.7571 6.09437 15.3342 6.6718 15.7565 7.40416C16.1788 8.12244 16.39 8.91114 16.39 9.77025H17.7413C17.7413 8.67171 17.4668 7.65063 16.9178 6.70701C16.3688 5.79156 15.6369 5.05921 14.7219 4.50994C13.7787 3.96067 12.7582 3.68603 11.6602 3.68603ZM4.67111 4.36206C4.71334 4.36206 4.76261 4.38318 4.81892 4.42543L7.58499 7.25628C7.59906 7.31262 7.58499 7.36191 7.54276 7.40416L5.53683 9.38999L5.68463 9.8125L5.95913 10.404C6.18436 10.8829 6.44477 11.3476 6.74039 11.7983C7.14861 12.4321 7.59906 12.9743 8.09175 13.425C8.75335 14.0729 9.54868 14.6644 10.4777 15.1996C10.9423 15.4672 11.3364 15.6643 11.6602 15.7911L12.0825 15.9812L14.1306 13.932C14.1588 13.9039 14.1799 13.8898 14.194 13.8898C14.2081 13.8898 14.2292 13.9039 14.2573 13.932L17.1079 16.784C17.136 16.8122 17.1501 16.8333 17.1501 16.8474C17.1501 16.8474 17.136 16.8615 17.1079 16.8896L14.9964 18.9811C14.6867 19.2487 14.3488 19.3191 13.9828 19.1923C11.1112 18.0797 8.71816 16.5587 6.80373 14.6292C5.62129 13.4461 4.58665 12.1011 3.69982 10.5942C3.06637 9.5097 2.57369 8.46045 2.22177 7.44642V7.42529C2.16546 7.29854 2.15842 7.15066 2.20065 6.98165C2.24288 6.79856 2.32031 6.65772 2.43292 6.55913L4.52331 4.42543C4.56554 4.38318 4.61481 4.36206 4.67111 4.36206ZM11.6602 6.39013V7.74218C12.2233 7.74218 12.7019 7.93935 13.096 8.3337C13.4902 8.72805 13.6872 9.2069 13.6872 9.77025H15.0386C15.0386 9.16464 14.8837 8.60129 14.5741 8.08019C14.2785 7.55909 13.8702 7.15066 13.3494 6.85489C12.8286 6.54505 12.2655 6.39013 11.6602 6.39013Z" fill="black"/>
</svg>
